<svg width="61" height="52" viewBox="0 0 61 52" version="1.1" xmlns="http://www.w3.org/2000/svg" xmlns:xlink="http://www.w3.org/1999/xlink">

    <g id="Canvas" transform="translate(28 202)">
        <g id="Group">
            <g id="Vector">
                <use xlink:href="#path0_fill" transform="matrix(0.965926 -0.258819 0.258819 0.965926 -31 -195.753)" fill="#4298f4"></use>
                <mask id="mask0_outline_out">
                    <rect id="mask0_outline_inv" fill="white" x="-1" y="-2" width="58" height="57" transform="matrix(0.965926 -0.258819 0.258819 0.965926 -31 -195.753)"></rect>
                    <use xlink:href="#path0_fill" fill="black" transform="matrix(0.965926 -0.258819 0.258819 0.965926 -31 -195.753)"></use>
                </mask>
                <g mask="url(#mask0_outline_out)">
                    <use xlink:href="#path1_stroke_2x" transform="matrix(0.965926 -0.258819 0.258819 0.965926 -31 -195.753)" fill="#FFFFFF"></use>
                </g>
            </g>
        </g>
    </g>
    <defs>
        <path id="path0_fill" fill-rule="evenodd" d="M 52.2802 23.2117L 44.0502 8.71806C 43.3699 7.7081 42.384 7.01103 41.3314 6.84308C 40.9753 6.77377 40.6084 6.78164 40.2556 6.86617C 39.9028 6.9507 39.5721 7.10992 39.2859 7.33311C 37.799 8.488 37.5508 10.0662 38.5275 12.1597L 42.7218 21.0354C 42.8602 21.3294 42.8906 21.6628 42.8078 21.9771C 42.725 22.2914 42.5343 22.5664 42.2691 22.7539C 42.0039 22.9429 41.6802 23.0312 41.3559 23.0029C 41.0316 22.9747 40.728 22.8318 40.4994 22.5998L 18.7925 0.873071C 17.625 -0.291024 15.591 -0.291024 14.4235 0.873071C 14.1361 1.15953 13.9084 1.50018 13.7533 1.87532C 13.5983 2.25046 13.5191 2.65265 13.5203 3.05862C 13.5203 3.88683 13.8398 4.66443 14.4235 5.24418L 14.4235 5.24648L 27.3167 18.1527C 27.5748 18.4114 27.7197 18.7622 27.7195 19.1279C 27.7193 19.4935 27.574 19.8441 27.3155 20.1025C 27.0571 20.3609 26.7067 20.5059 26.3414 20.5057C 25.9761 20.5055 25.6259 20.36 25.3678 20.1013L 12.4838 7.20427C 12.4815 7.20427 12.4792 7.20427 12.4769 7.19967L 8.84109 3.55325C 8.26021 2.97528 7.47447 2.65088 6.65546 2.65088C 5.83645 2.65088 5.05071 2.97528 4.46983 3.55325C 3.89259 4.13433 3.56858 4.92048 3.56858 5.73995C 3.56858 6.55942 3.89259 7.34558 4.46983 7.92666L 8.10565 11.5662L 20.9988 24.4724C 21.2424 24.7341 21.375 25.0802 21.3687 25.4378C 21.3624 25.7954 21.2177 26.1366 20.965 26.3895C 20.7124 26.6424 20.3715 26.7873 20.0143 26.7936C 19.657 26.7999 19.3113 26.6672 19.0499 26.4233L 6.15674 13.5171C 4.98463 12.3484 2.95529 12.3484 1.79008 13.5171C 1.50197 13.8031 1.27355 14.1436 1.1181 14.5188C 0.962647 14.894 0.883264 15.2964 0.884567 15.7026C 0.884567 16.5308 1.20402 17.3061 1.78778 17.8928L 7.21853 23.3268C 7.22313 23.3291 7.22313 23.3314 7.22313 23.3337L 15.3129 31.4317C 15.5505 31.6944 15.678 32.0385 15.669 32.3927C 15.6601 32.747 15.5155 33.0842 15.265 33.3346C 15.0146 33.585 14.6775 33.7294 14.3237 33.7379C 13.9698 33.7464 13.6262 33.6184 13.364 33.3803L 5.26962 25.2753L 5.26732 25.2753C 4.98107 24.9878 4.64075 24.7598 4.26601 24.6046C 3.89127 24.4495 3.48953 24.3701 3.08399 24.3712C 2.47352 24.3726 1.87714 24.555 1.37005 24.8952C 0.862958 25.2354 0.467864 25.7184 0.234588 26.2831C 0.00131141 26.8478 -0.0597006 27.469 0.0592444 28.0684C 0.178189 28.6678 0.471765 29.2185 0.902953 29.6511L 16.4828 45.249C 25.0207 53.7911 37.9185 58.1277 47.4861 48.548C 55.592 40.4316 57.1617 32.1449 52.2802 23.2071L 52.2802 23.2117Z"></path>
        <path id="path1_stroke_2x" d="M 52.2802 23.2117L 51.4106 23.7055L 53.2802 26.998L 53.2802 23.2117L 52.2802 23.2117ZM 44.0502 8.71806L 44.9198 8.22427L 44.9009 8.19107L 44.8796 8.1594L 44.0502 8.71806ZM 41.3314 6.84308L 41.1403 7.82467L 41.157 7.82791L 41.1738 7.83059L 41.3314 6.84308ZM 39.2859 7.33311L 39.8993 8.12288L 39.9009 8.12166L 39.2859 7.33311ZM 38.5275 12.1597L 37.6213 12.5825L 37.6234 12.587L 38.5275 12.1597ZM 42.7218 21.0354L 43.6267 20.6096L 43.6259 20.6081L 42.7218 21.0354ZM 42.2691 22.7539L 41.6918 21.9374L 41.6887 21.9396L 42.2691 22.7539ZM 40.4994 22.5998L 41.2118 21.8979L 41.2068 21.893L 40.4994 22.5998ZM 18.7925 0.873071L 19.4999 0.166285L 19.4986 0.16493L 18.7925 0.873071ZM 14.4235 0.873071L 15.1295 1.58131L 15.1296 1.58121L 14.4235 0.873071ZM 13.5203 3.05862L 14.5203 3.05862L 14.5203 3.05561L 13.5203 3.05862ZM 14.4235 5.24418L 15.4235 5.24418L 15.4235 4.82794L 15.1282 4.53464L 14.4235 5.24418ZM 14.4235 5.24648L 13.4235 5.24648L 13.4235 5.66039L 13.7161 5.95322L 14.4235 5.24648ZM 27.3167 18.1527L 28.0246 17.4464L 28.0241 17.446L 27.3167 18.1527ZM 25.3678 20.1013L 26.0757 19.395L 26.0752 19.3946L 25.3678 20.1013ZM 12.4838 7.20427L 13.1913 6.49753L 12.8983 6.20427L 12.4838 6.20427L 12.4838 7.20427ZM 12.4769 7.19967L 13.3715 6.75282L 13.2992 6.60813L 13.185 6.4936L 12.4769 7.19967ZM 8.84109 3.55325L 9.54923 2.84717L 9.54642 2.84437L 8.84109 3.55325ZM 4.46983 3.55325L 3.76449 2.84435L 3.76038 2.84849L 4.46983 3.55325ZM 4.46983 7.92666L 3.76038 8.63142L 3.76236 8.6334L 4.46983 7.92666ZM 8.10565 11.5662L 8.81312 10.8594L 8.10565 11.5662ZM 20.9988 24.4724L 21.7308 23.7911L 21.7187 23.7782L 21.7063 23.7657L 20.9988 24.4724ZM 19.0499 26.4233L 18.3424 27.1301L 18.3549 27.1426L 18.3678 27.1546L 19.0499 26.4233ZM 6.15674 13.5171L 6.86421 12.8103L 6.86282 12.8089L 6.15674 13.5171ZM 1.79008 13.5171L 2.49464 14.2267L 2.49824 14.2231L 1.79008 13.5171ZM 0.884567 15.7026L 1.88457 15.7026L 1.88456 15.6994L 0.884567 15.7026ZM 1.78778 17.8928L 1.07892 18.5981L 1.08046 18.5997L 1.78778 17.8928ZM 7.21853 23.3268L 6.51121 24.0337L 6.62589 24.1484L 6.77095 24.221L 7.21853 23.3268ZM 7.22313 23.3337L 6.22313 23.3337L 6.22313 23.7476L 6.51566 24.0404L 7.22313 23.3337ZM 15.3129 31.4317L 16.0547 30.7611L 16.038 30.7426L 16.0204 30.725L 15.3129 31.4317ZM 13.364 33.3803L 12.6565 34.0869L 12.6737 34.1042L 12.6918 34.1206L 13.364 33.3803ZM 5.26962 25.2753L 5.97718 24.5687L 5.68421 24.2753L 5.26962 24.2753L 5.26962 25.2753ZM 5.26732 25.2753L 4.55858 25.9808L 4.85176 26.2753L 5.26732 26.2753L 5.26732 25.2753ZM 3.08399 24.3712L 3.0863 25.3712L 3.08669 25.3712L 3.08399 24.3712ZM 0.902953 29.6511L 0.194703 30.357L 0.195435 30.3578L 0.902953 29.6511ZM 16.4828 45.249L 15.7752 45.9557L 15.7755 45.9559L 16.4828 45.249ZM 47.4861 48.548L 48.1936 49.2547L 48.1936 49.2547L 47.4861 48.548ZM 52.2802 23.2071L 53.1579 22.7278L 51.2802 23.2071L 52.2802 23.2071ZM 53.1498 22.7179L 44.9198 8.22427L 43.1806 9.21184L 51.4106 23.7055L 53.1498 22.7179ZM 44.8796 8.1594C 44.0773 6.96834 42.8683 6.07566 41.4889 5.85557L 41.1738 7.83059C 41.8996 7.94639 42.6625 8.44786 43.2208 9.27672L 44.8796 8.1594ZM 41.5224 5.8615C 41.0605 5.77741 40.4805 5.78986 40.0226 5.89369L 40.4886 7.83865C 40.7364 7.77342 40.89 7.77013 41.1403 7.82467L 41.5224 5.8615ZM 40.0226 5.89369C 39.5674 6.0086 39.0447 6.26031 38.671 6.54455L 39.9009 8.12166C 40.0995 7.95952 40.2381 7.8928 40.4886 7.83865L 40.0226 5.89369ZM 38.6725 6.54333C 37.7646 7.24853 37.167 8.14484 36.995 9.23917C 36.8275 10.3046 37.0838 11.4305 37.6213 12.5825L 39.4337 11.7369C 38.9945 10.7955 38.8865 10.0854 38.9707 9.54969C 39.0504 9.04281 39.3203 8.57257 39.8993 8.12288L 38.6725 6.54333ZM 37.6234 12.587L 41.8177 21.4626L 43.6259 20.6081L 39.4316 11.7325L 37.6234 12.587ZM 41.817 21.4611C 41.8952 21.5917 41.8941 21.5797 41.8408 21.7223L 43.7748 22.2319C 43.8871 21.746 43.8251 21.0671 43.6267 20.6096L 41.817 21.4611ZM 41.8408 21.7223C 41.8169 21.8727 41.824 21.8625 41.6918 21.9374L 42.8463 23.5705C 43.2446 23.2703 43.6332 22.7101 43.7748 22.2319L 41.8408 21.7223ZM 41.6887 21.9396C 41.5755 22.0393 41.5906 22.0352 41.4427 22.0067L 41.2691 23.9991C 41.7697 24.0271 42.4323 23.8465 42.8494 23.5683L 41.6887 21.9396ZM 41.4427 22.0067C 41.292 22.0092 41.3061 22.0158 41.2117 21.8979L 39.7871 23.3016C 40.1499 23.6477 40.7712 23.9402 41.2691 23.9991L 41.4427 22.0067ZM 41.2068 21.893L 19.4999 0.166286L 18.0851 1.57986L 39.792 23.3066L 41.2068 21.893ZM 19.4986 0.16493C 17.9408 -1.38831 15.2753 -1.38831 13.7175 0.16493L 15.1296 1.58121C 15.9068 0.806263 17.3092 0.806263 18.0864 1.58121L 19.4986 0.16493ZM 13.7176 0.164833C 13.3638 0.52438 13.0263 1.02898 12.8291 1.49339L 14.6775 2.25726C 14.7904 1.97138 14.9085 1.79468 15.1295 1.58131L 13.7176 0.164833ZM 12.8291 1.49339C 12.641 1.96149 12.5237 2.55709 12.5203 3.06163L 14.5203 3.05561C 14.5145 2.74821 14.5556 2.53944 14.6775 2.25726L 12.8291 1.49339ZM 12.5203 3.05862C 12.5203 4.14878 12.9429 5.18312 13.7189 5.95371L 15.1282 4.53464C 14.7366 4.14574 14.5203 3.62489 14.5203 3.05862L 12.5203 3.05862ZM 13.4235 5.24418L 13.4235 5.24648L 15.4235 5.24648L 15.4235 5.24418L 13.4235 5.24418ZM 13.7161 5.95322L 26.6092 18.8595L 28.0241 17.446L 15.131 4.53973L 13.7161 5.95322ZM 26.6088 18.8591C 26.6796 18.9301 26.7196 19.0265 26.7195 19.1273L 28.7195 19.1284C 28.7199 18.4979 28.47 17.8928 28.0246 17.4464L 26.6088 18.8591ZM 26.7195 19.1273C 26.7194 19.228 26.6794 19.3244 26.6085 19.3953L 28.0226 20.8097C 28.4686 20.3637 28.7191 19.759 28.7195 19.1284L 26.7195 19.1273ZM 26.6085 19.3953C 26.5376 19.4662 26.4417 19.5058 26.342 19.5057L 26.3408 21.5057C 26.9716 21.5061 27.5766 21.2556 28.0226 20.8097L 26.6085 19.3953ZM 26.342 19.5057C 26.2423 19.5057 26.1464 19.466 26.0757 19.395L 24.6599 20.8077C 25.1054 21.2541 25.71 21.5053 26.3408 21.5057L 26.342 19.5057ZM 26.0752 19.3946L 13.1913 6.49753L 11.7763 7.91102L 24.6603 20.8081L 26.0752 19.3946ZM 12.4838 6.20427C 12.4576 6.20427 12.6886 6.18967 12.9279 6.30943C 13.1876 6.43939 13.3161 6.64195 13.3715 6.75282L 11.5823 7.64652C 11.64 7.762 11.7708 7.96685 12.0328 8.09797C 12.2516 8.17747 12.4826 8.20427 12.4838 8.20427L 12.4838 6.20427ZM 13.185 6.4936L 9.54923 2.84717L 8.13295 4.25933L 11.7688 7.90575L 13.185 6.4936ZM 9.54642 2.84437C 8.77826 2.08006 7.73897 1.65088 6.65546 1.65088L 6.65546 3.65088C 7.20998 3.65088 7.74217 3.87051 8.13576 4.26213L 9.54642 2.84437ZM 6.65546 1.65088C 5.57195 1.65088 4.53266 2.08006 3.7645 2.84437L 5.17516 4.26213C 5.56875 3.87051 6.10094 3.65088 6.65546 3.65088L 6.65546 1.65088ZM 3.76038 2.84849C 2.99694 3.61702 2.56858 4.65656 2.56858 5.73995L 4.56858 5.73995C 4.56858 5.1844 4.78825 4.65164 5.17928 4.25801L 3.76038 2.84849ZM 2.56858 5.73995C 2.56858 6.82334 2.99694 7.86289 3.76038 8.63141L 5.17928 7.2219C 4.78825 6.82827 4.56858 6.2955 4.56858 5.73995L 2.56858 5.73995ZM 3.76236 8.6334L 7.39819 12.2729L 8.81312 10.8594L 5.1773 7.21991L 3.76236 8.6334ZM 7.39819 12.2729L 20.2913 25.1792L 21.7063 23.7657L 8.81312 10.8594L 7.39819 12.2729ZM 20.2668 25.1538C 20.3339 25.2258 20.3706 25.3213 20.3688 25.4202L 22.3685 25.4554C 22.3794 24.8391 22.1509 24.2424 21.7308 23.7911L 20.2668 25.1538ZM 20.3688 25.4202C 20.3671 25.519 20.3271 25.6132 20.2575 25.6828L 21.6725 27.0963C 22.1082 26.6601 22.3577 26.0718 22.3685 25.4554L 20.3688 25.4202ZM 20.2575 25.6828C 20.188 25.7523 20.0945 25.792 19.9966 25.7938L 20.0319 27.7934C 20.6486 27.7825 21.2367 27.5325 21.6725 27.0963L 20.2575 25.6828ZM 19.9966 25.7938C 19.8988 25.7955 19.8039 25.7591 19.732 25.6921L 18.3678 27.1546C 18.8187 27.5752 19.4153 27.8043 20.0319 27.7934L 19.9966 25.7938ZM 19.7574 25.7166L 6.86421 12.8103L 5.44927 14.2238L 18.3424 27.1301L 19.7574 25.7166ZM 6.86282 12.8089C 5.30158 11.2522 2.63904 11.2492 1.08191 12.811L 2.49824 14.2231C 3.27153 13.4475 4.66769 13.4445 5.45066 14.2252L 6.86282 12.8089ZM 1.08552 12.8074C 0.730678 13.1666 0.392078 13.6714 0.194253 14.1361L 2.04195 14.9016C 2.15503 14.6159 2.27326 14.4396 2.49464 14.2267L 1.08552 12.8074ZM 0.194253 14.1361C 0.00549122 14.6045 -0.112152 15.2008 -0.115428 15.7058L 1.88456 15.6994C 1.87868 15.3921 1.9198 15.1836 2.04195 14.9016L 0.194253 14.1361ZM -0.115433 15.7026C -0.115433 16.7946 0.308301 17.8237 1.07892 18.5981L 2.49663 17.1874C 2.09975 16.7886 1.88457 16.267 1.88457 15.7026L -0.115433 15.7026ZM 1.08046 18.5997L 6.51121 24.0337L 7.92585 22.6199L 2.49509 17.1859L 1.08046 18.5997ZM 6.77095 24.221C 6.66 24.1655 6.45767 24.0368 6.32796 23.7771C 6.20853 23.538 6.22313 23.3073 6.22313 23.3337L 8.22313 23.3337C 8.22313 23.3325 8.19642 23.1018 8.11714 22.8833C 7.98628 22.6214 7.78166 22.4903 7.66611 22.4325L 6.77095 24.221ZM 6.51566 24.0404L 14.6055 32.1385L 16.0204 30.725L 7.93059 22.6269L 6.51566 24.0404ZM 14.5712 32.1024C 14.6366 32.1747 14.6718 32.2696 14.6694 32.3676L 16.6687 32.4179C 16.6841 31.8074 16.4644 31.2142 16.0547 30.7611L 14.5712 32.1024ZM 14.6694 32.3676C 14.6669 32.4655 14.6269 32.5585 14.558 32.6274L 15.9721 34.0417C 16.404 33.6099 16.6534 33.0284 16.6687 32.4179L 14.6694 32.3676ZM 14.558 32.6274C 14.4891 32.6963 14.3965 32.7359 14.2996 32.7382L 14.3477 34.7376C 14.9585 34.7229 15.5401 34.4737 15.9721 34.0417L 14.558 32.6274ZM 14.2996 32.7382C 14.2027 32.7405 14.1084 32.7055 14.0363 32.64L 12.6918 34.1206C 13.144 34.5313 13.7369 34.7523 14.3477 34.7376L 14.2996 32.7382ZM 14.0716 32.6737L 5.97718 24.5687L 4.56205 25.982L 12.6565 34.0869L 14.0716 32.6737ZM 5.26962 24.2753L 5.26732 24.2753L 5.26732 26.2753L 5.26962 26.2753L 5.26962 24.2753ZM 5.97606 24.5699C 5.6168 24.2159 5.11261 23.8781 4.64861 23.6807L 3.88341 25.5286C 4.1689 25.6415 4.34535 25.7597 4.55858 25.9808L 5.97606 24.5699ZM 4.64861 23.6807C 4.18085 23.4923 3.58551 23.3747 3.08128 23.3712L 3.08669 25.3712C 3.39354 25.3655 3.60169 25.4066 3.88341 25.5286L 4.64861 23.6807ZM 3.08167 23.3712C 2.32457 23.3838 1.44773 23.6518 0.812876 24.0648L 1.92722 25.7256C 2.30655 25.4581 2.62247 25.3615 3.0863 25.3712L 3.08167 23.3712ZM 0.812876 24.0648C 0.190119 24.4957 -0.390504 25.2053 -0.689659 25.9013L 1.15883 26.6649C 1.32623 26.2314 1.5358 25.9752 1.92722 25.7256L 0.812876 24.0648ZM -0.689659 25.9013C -0.96887 26.6054 -1.0585 27.518 -0.921628 28.263L 1.04012 27.8737C 0.939099 27.42 0.971493 27.0902 1.15883 26.6649L -0.689659 25.9013ZM -0.921628 28.263C -0.763616 29.0039 -0.332252 29.8131 0.194704 30.357L 1.6112 28.9451C 1.27578 28.6239 1.11999 28.3316 1.04012 27.8737L -0.921628 28.263ZM 0.195435 30.3578L 15.7752 45.9557L 17.1903 44.5423L 1.61047 28.9444L 0.195435 30.3578ZM 15.7755 45.9559C 20.1493 50.3319 25.6859 53.6808 31.427 54.6794C 37.2126 55.6856 43.1638 54.2909 48.1936 49.2547L 46.7785 47.8414C 42.2408 52.3848 36.9593 53.6116 31.7697 52.709C 26.5354 51.7986 21.3542 48.7082 17.19 44.5421L 15.7755 45.9559ZM 48.1936 49.2547C 52.3398 45.1031 54.8921 40.8304 55.736 36.3715C 56.5826 31.898 55.6865 27.3577 53.1579 22.7278L 51.4026 23.6865C 53.7554 27.9943 54.5152 32.0663 53.7709 35.9996C 53.0237 39.9476 50.7383 43.8765 46.7785 47.8414L 48.1936 49.2547ZM 51.2802 23.2071L 51.2802 23.2117L 53.2802 23.2117L 53.2802 23.2071L 51.2802 23.2071Z"></path>
    </defs>
</svg>